PathFileType	4	(X/Y/Z)	C:/Users/opensim2020/Desktop/walking_exp_matlab/subject06_walking17_straight_04.trc																																																																																																																																					
DataRate	CameraRate	NumFrames	NumMarkers	Units	OrigDataRate	OrigDataStartFrame	OrigNumFrames																																																																																																																																	
100	100	8	45	mm	100	4405	318																																																																																																																																	
Frame#	Time	LFHD			RFHD			LBHD			RBHD			C7			T10			CLAV			STRN			RBAK			LSHO			LUPA			LELB			LFRM			LWRA			LWRB			LFIN			RSHO			RUPA			RELB			RFRM			RWRA			RWRB			RFIN			LASI			RASI			LPSI			RPSI			LTHI			LKNE			LTIB			LANK			LHEE			LTOE			RTHI			RKNE			RTIB			RANK			RHEE			RTOE			*39			*40			*41			*42			*43			*44		
		X1	Y1	Z1	X2	Y2	Z2	X3	Y3	Z3	X4	Y4	Z4	X5	Y5	Z5	X6	Y6	Z6	X7	Y7	Z7	X8	Y8	Z8	X9	Y9	Z9	X10	Y10	Z10	X11	Y11	Z11	X12	Y12	Z12	X13	Y13	Z13	X14	Y14	Z14	X15	Y15	Z15	X16	Y16	Z16	X17	Y17	Z17	X18	Y18	Z18	X19	Y19	Z19	X20	Y20	Z20	X21	Y21	Z21	X22	Y22	Z22	X23	Y23	Z23	X24	Y24	Z24	X25	Y25	Z25	X26	Y26	Z26	X27	Y27	Z27	X28	Y28	Z28	X29	Y29	Z29	X30	Y30	Z30	X31	Y31	Z31	X32	Y32	Z32	X33	Y33	Z33	X34	Y34	Z34	X35	Y35	Z35	X36	Y36	Z36	X37	Y37	Z37	X38	Y38	Z38	X39	Y39	Z39	X40	Y40	Z40	X41	Y41	Z41	X42	Y42	Z42	X43	Y43	Z43	X44	Y44	Z44	X45	Y45	Z45
																																																																																																																																								
120	1.19	-631.19067	1668.4303	-1524.37292	-631.06921	1647.89429	-1394.12769	-761.66486	1606.90479	-1530.24792	-760.52032	1592.30847	-1402.36304	-755.14172	1447.86841	-1479.89502	-782.24841	1119.06897	-1470.70667	-642.55859	1373.1543	-1483.86597	-602.61426	1196.79993	-1495.4408	-820.40686	1274.92957	-1399.03882	-703.74329	1403.94519	-1642.18701	-677.85095	1202.73303	-1713.70703	-655.82019	1091.73413	-1725.76294	-568.78229	967.95911	-1733.97168	-466.76025	900.47766	-1677.20544	-512.98914	863.70801	-1716.70642	-436.62943	814.30475	-1707.9801	-683.24915	1403.41992	-1321.10254	-719.79358	1204.90466	-1233.67249	-712.43323	1082.79285	-1223.22144	-695.0318	963.50745	-1207.60437	-634.44708	825.48145	-1243.03955	-686.15692	826.28564	-1199.61743	-648.51563	750.40887	-1200.61133	-612.67285	953.84412	-1590.35596	-592.00269	971.88885	-1370.20313	-765.31262	985.98828	-1547.97363	-745.46106	995.70361	-1381.16711	-717.54419	641.8855	-1631.58057	-740.0105	478.72168	-1610.96667	-915.37897	290.28476	-1595.58521	-1020.19177	154.35912	-1551.57642	-1057.56604	166.40642	-1504.18213	-926.30902	41.52759	-1549.00903	-605.11761	640.96027	-1304.27283	-579.79877	520.43304	-1334.67358	-575.86841	253.91458	-1336.55249	-557.46204	70.9739	-1386.50244	-591.23773	46.68261	-1434.78955	-405.73077	42.78323	-1383.18335	-734.15582	1696.82324	-1463.96875	NaN	NaN	NaN	NaN	NaN	NaN	NaN	NaN	NaN	NaN	NaN	NaN	NaN	NaN	NaN
121	1.2	-624.1651	1669.5343	-1522.79163	-623.74268	1648.65918	-1392.60693	-754.34326	1607.68689	-1528.22986	-753.09003	1592.85168	-1400.65454	-747.55646	1448.67041	-1478.61938	-774.47064	1119.98108	-1469.401	-634.91296	1374.1261	-1482.74524	-594.81396	1197.74548	-1494.23584	-812.51581	1275.95227	-1397.70056	-696.20276	1404.98718	-1640.82751	-670.92426	1203.79285	-1712.33875	-650.29169	1092.427	-1724.09363	-564.6792	967.60864	-1732.97327	-463.25357	898.54498	-1676.61633	-510.03845	862.81091	-1716.48499	-434.24475	812.19287	-1707.78247	-675.42316	1404.47925	-1320.01123	-711.2467	1205.93872	-1232.50464	-703.70892	1083.88684	-1222.09106	-686.07947	964.57813	-1206.46887	-625.22998	826.58026	-1241.85803	-677.12292	827.43933	-1198.28833	-639.75543	751.4726	-1199.36108	-604.88165	954.73865	-1588.55566	-583.86914	972.75891	-1368.40747	-757.62646	986.62109	-1546.45471	-737.61426	996.55133	-1379.72107	-706.36987	641.66003	-1630.83154	-726.07147	478.08456	-1610.41345	-904.85254	293.77371	-1595.04065	-1012.85773	160.44795	-1551.58508	-1049.56165	174.013	-1503.93127	-924.86871	43.78813	-1549.32068	-599.87012	641.26825	-1303.18872	-574.87115	520.58282	-1333.7373	-573.12189	254.14836	-1336.28088	-556.77661	71.06107	-1386.59595	-590.92181	46.86073	-1434.80627	-405.27817	42.39785	-1383.44666	-727.12335	1697.71484	-1462.02002	NaN	NaN	NaN	NaN	NaN	NaN	NaN	NaN	NaN	NaN	NaN	NaN	NaN	NaN	NaN
122	1.21	-617.16449	1670.58838	-1521.32397	-616.48761	1649.38635	-1391.14355	-747.50415	1608.57727	-1526.85071	-745.76611	1593.37427	-1399.08154	-740.00409	1449.41431	-1477.34839	-766.79529	1120.85571	-1468.02771	-627.34546	1374.98743	-1481.6217	-587.08313	1198.61365	-1492.94031	-804.69629	1276.92615	-1396.21521	-688.68591	1405.89563	-1639.53735	-664.1319	1204.64563	-1711.0863	-644.90399	1092.95569	-1722.52234	-560.81812	967.26685	-1732.82068	-459.8811	896.49414	-1676.12122	-507.15115	861.68231	-1716.13843	-432.06763	809.91351	-1707.60999	-667.5791	1405.45447	-1318.93787	-702.8429	1206.92993	-1231.18738	-695.12366	1084.88965	-1220.88867	-677.19366	965.62128	-1205.24377	-616.01337	827.68518	-1240.66187	-667.78113	828.54559	-1197.10535	-630.22681	752.6087	-1197.99072	-597.27856	955.61926	-1586.81091	-576.07251	973.47955	-1366.72729	-750.11261	987.14368	-1544.95251	-729.86664	997.3764	-1378.28369	-694.69495	641.27808	-1629.64087	-711.86493	477.56613	-1609.73267	-893.79816	297.47479	-1594.75134	-1005.02167	166.86407	-1551.72437	-1041.01245	181.93906	-1504.01587	-922.30188	45.97505	-1549.15796	-593.99261	641.58533	-1302.19873	-570.13715	520.58594	-1332.79065	-571.30133	254.34299	-1335.91931	-556.30615	71.09269	-1386.61951	-590.68402	46.98227	-1434.7821	-404.80823	42.04736	-1383.38782	-720.05817	1698.35706	-1460.23804	NaN	NaN	NaN	NaN	NaN	NaN	NaN	NaN	NaN	NaN	NaN	NaN	NaN	NaN	NaN
123	1.22	-610.22577	1671.47083	-1519.97754	-609.22272	1650.09106	-1389.75378	-740.41943	1609.23743	-1525.36572	-738.44635	1593.87842	-1397.58142	-732.57526	1450.13257	-1476.12488	-759.30933	1121.62244	-1466.59412	-619.79443	1375.77515	-1480.48145	-579.4538	1199.33081	-1491.65967	-796.96747	1277.78003	-1394.62537	-681.1795	1406.64294	-1638.28235	-657.55975	1205.25879	-1709.95923	-639.55548	1093.36658	-1721.11267	-557.11115	966.59088	-1731.67468	-456.64185	894.31976	-1675.69812	-504.49844	860.39899	-1716.05518	-430.03619	807.49188	-1707.57007	-659.79065	1406.35291	-1317.8584	-694.34454	1207.82422	-1229.90234	-686.55444	1085.74683	-1219.59851	-668.27448	966.547	-1203.95764	-606.43188	828.87097	-1239.34839	-658.84656	829.46204	-1195.72473	-620.70123	753.68018	-1196.74878	-589.88239	956.47021	-1585.26709	-570.41309	973.43396	-1365.6272	-742.83344	987.53387	-1543.53442	-722.30896	998.07941	-1376.89465	-683.12628	641.02722	-1628.54663	-697.32849	477.16138	-1608.98669	-882.08698	301.08932	-1594.24756	-996.49408	173.51567	-1551.88867	-1031.81494	190.04889	-1504.19226	-918.83978	48.24826	-1548.83252	-588.49548	641.86835	-1301.09155	-565.48785	520.42358	-1331.6825	-570.07043	254.21335	-1335.56067	-556.10175	71.01947	-1386.63184	-590.60199	47.02292	-1434.80347	-404.50336	41.66689	-1383.2301	-713.01056	1698.9635	-1458.67822	NaN	NaN	NaN	NaN	NaN	NaN	NaN	NaN	NaN	NaN	NaN	NaN	NaN	NaN	NaN
124	1.23	-603.20367	1672.27234	-1518.66492	-601.99219	1650.77881	-1388.50159	-733.26312	1609.77783	-1523.92188	-731.08667	1594.23779	-1396.00806	-725.11426	1450.81653	-1474.89258	-751.86493	1122.28528	-1465.13977	-612.30957	1376.49683	-1479.35303	-571.86804	1200.06311	-1490.4043	-789.3681	1278.51001	-1393.0675	-673.79523	1407.24146	-1637.14453	-651.14197	1205.69128	-1708.81189	-634.15582	1093.65601	-1719.87378	-553.34619	965.87378	-1730.99353	-453.53247	892.14563	-1675.43079	-501.55844	858.53162	-1715.23975	-428.24576	804.88806	-1707.57861	-652.01874	1407.12573	-1316.75525	-686.1261	1208.60107	-1228.51196	-678.12793	1086.54895	-1218.17407	-659.30524	967.41473	-1202.6488	-597.26855	829.89063	-1238.26013	-649.08832	830.38434	-1194.65723	-611.00146	754.81415	-1195.49585	-582.62122	957.29218	-1583.91821	-561.1488	974.61841	-1364.09607	-735.67682	987.84888	-1542.16162	-714.95795	998.71826	-1375.49744	-671.55554	640.87054	-1627.46899	-682.57977	476.89334	-1608.06909	-869.99396	304.78909	-1593.83655	-987.39111	180.33372	-1552.45325	-1021.96936	198.03323	-1504.47876	-915.1377	51.98187	-1549.48718	-582.77386	642.17358	-1300.20032	-561.58716	520.34589	-1330.20105	-569.23395	254.11592	-1335.04028	-556.02899	70.93985	-1386.5802	-590.59839	47.04357	-1434.74463	-404.20718	41.37761	-1383.06458	-705.99109	1699.51245	-1457.23584	NaN	NaN	NaN	NaN	NaN	NaN	NaN	NaN	NaN	NaN	NaN	NaN	NaN	NaN	NaN
125	1.24	-596.02942	1673.05579	-1517.42712	-594.88379	1651.50159	-1387.28918	-725.81769	1610.15015	-1522.39026	-723.89667	1594.82251	-1394.95068	-717.72394	1451.44751	-1473.68176	-744.51624	1122.88147	-1463.75134	-604.91656	1377.18567	-1478.24438	-564.53217	1200.70264	-1489.1582	-781.92059	1279.15674	-1391.6012	-666.47443	1407.69629	-1636.02026	-644.92328	1205.95374	-1707.62976	-628.69562	1093.75012	-1718.58606	-549.58344	964.97662	-1730.39905	-450.72253	889.64606	-1675.21899	-499.56061	857.32581	-1715.77893	-426.73428	802.13635	-1707.68408	-644.36853	1407.81042	-1315.6145	-678.02411	1209.31018	-1227.11072	-669.65698	1087.271	-1216.71448	-650.41351	968.20764	-1201.30786	-587.8736	831.02118	-1237.10608	-639.57227	831.32855	-1193.37817	-601.13062	755.95062	-1194.3313	-575.46063	958.12207	-1582.77148	-554.09747	974.784	-1362.77161	-728.59174	988.06458	-1540.86987	-707.71033	999.25171	-1374.19006	-660.04407	640.78601	-1626.29297	-667.78265	476.82513	-1606.94421	-857.11932	308.37863	-1593.39563	-977.42993	186.62752	-1552.94653	-1011.36786	205.62178	-1504.95569	-910.43921	53.1092	-1547.96704	-577.22345	642.75891	-1299.30176	-558.06836	520.29681	-1328.58936	-568.21497	254.11061	-1334.39111	-555.97711	70.83591	-1386.5155	-590.60785	47.03209	-1434.69128	-404.11041	41.21564	-1382.80469	-698.99225	1700.07068	-1456.01978	NaN	NaN	NaN	NaN	NaN	NaN	NaN	NaN	NaN	NaN	NaN	NaN	NaN	NaN	NaN
126	1.25	-588.96521	1673.73669	-1516.28857	-587.79803	1652.20801	-1386.14941	-718.64087	1610.64856	-1521.26611	-716.72095	1595.34546	-1393.8252	-710.41565	1452.15125	-1472.48352	-737.28998	1123.43274	-1462.35535	-597.73029	1377.75403	-1477.09534	-557.39453	1201.29236	-1487.93933	-774.62628	1279.75256	-1390.19202	-659.32764	1408.06592	-1634.96692	-638.85266	1206.00293	-1706.47485	-623.21948	1093.79932	-1717.47156	-545.95673	964.02551	-1729.82043	-448.08484	886.91998	-1675.02991	-497.41794	855.49829	-1715.59485	-425.43726	799.27985	-1707.92151	-636.82941	1408.47241	-1314.44458	-669.99884	1209.92041	-1225.61536	-661.24738	1087.88013	-1215.21936	-641.37885	968.90137	-1199.97034	-578.04559	832.20178	-1235.92078	-630.0119	831.97644	-1192.2677	-591.10089	757	-1193.17712	-568.40515	958.90417	-1581.72571	-546.90863	975.35138	-1361.65491	-721.62396	988.29675	-1539.74146	-700.66321	999.82782	-1373.10059	-648.45923	640.78699	-1625.02344	-653.0495	476.91061	-1605.6228	-844.39026	312.24652	-1593.58069	-966.65833	192.1785	-1553.33936	-1000.00647	212.73738	-1505.60254	-905.29529	56.61472	-1548.2395	-571.8244	643.21094	-1298.59314	-554.7959	520.25372	-1327.07068	-566.8385	254.12477	-1333.7063	-555.88593	70.79865	-1386.36731	-590.65265	47.06118	-1434.60034	-404.0246	41.07866	-1382.60986	-691.96399	1700.63147	-1454.8844	NaN	NaN	NaN	NaN	NaN	NaN	NaN	NaN	NaN	NaN	NaN	NaN	NaN	NaN	NaN
127	1.26	-581.84052	1674.30371	-1515.29553	-580.71991	1652.86279	-1385.15503	-711.43958	1611.15369	-1520.2301	-709.57935	1595.90173	-1392.79309	-703.18634	1452.82983	-1471.32373	-730.19415	1123.99426	-1460.99524	-590.5752	1378.30603	-1475.99573	-550.33948	1201.84985	-1486.73975	-767.34473	1280.32068	-1388.6969	-652.22882	1408.36731	-1633.91638	-632.83813	1206.09851	-1705.30615	-617.77838	1093.79443	-1716.39832	-542.36639	962.9884	-1729.2312	-445.66458	884.13611	-1674.8949	-495.58676	853.68073	-1715.59033	-424.36932	796.41113	-1708.28711	-629.37769	1409.07373	-1313.25464	-662.00452	1210.53894	-1224.19873	-652.91718	1088.47192	-1213.70288	-632.422	969.63177	-1198.60461	-569.35712	833.03174	-1235.27405	-620.5509	832.68274	-1190.97461	-580.87384	758.06604	-1192.0863	-561.43414	959.63855	-1580.76111	-540.66266	975.84607	-1360.94946	-714.69458	988.53436	-1538.6842	-693.69824	1000.39191	-1372.09094	-636.92059	640.88245	-1623.69788	-638.45752	477.1322	-1604.17163	-831.36621	315.6203	-1593.62683	-955.57867	197.48592	-1553.91089	-988.33435	219.15092	-1506.27844	-899.35516	60.29229	-1548.94788	-567.02789	643.5896	-1297.92651	-551.47144	520.22992	-1325.72583	-565.24957	254.2002	-1332.98865	-555.8924	70.72462	-1386.1759	-590.71039	47.04363	-1434.45715	-403.98889	40.86254	-1382.6167	-684.84393	1701.16736	-1453.90698	NaN	NaN	NaN	NaN	NaN	NaN	NaN	NaN	NaN	NaN	NaN	NaN	NaN	NaN	NaN
